<svg id="圖層_1" data-name="圖層 1" xmlns="http://www.w3.org/2000/svg" viewBox="0 0 330.5 54.9"><defs><style>.cls-1{fill:#0a3681;}.cls-2{fill:#9fa0a0;}</style></defs><path class="cls-1" d="M41.1,25.7H58.8c.1-1.5.3-3.1.5-4.6a.77.77,0,0,0-.8-.9H41.4a.82.82,0,0,0-.8.9c.2,1.5.4,3,.5,4.6" transform="translate(-3.5 0)"/><path class="cls-1" d="M59.6,26.5H40.3a.79.79,0,0,0-.8.8c.3,4.2.5,7.2.7,11.3a.86.86,0,0,0,.8.8H59a.79.79,0,0,0,.8-.8c.2-4.1.4-7.1.7-11.3a1,1,0,0,0-.9-.8" transform="translate(-3.5 0)"/><path class="cls-1" d="M69.6,18.9V13.4a.86.86,0,0,0-.8-.8H64.6a.86.86,0,0,0-.8.8v5.5Z" transform="translate(-3.5 0)"/><path class="cls-1" d="M63.9,19.7V38.6a.86.86,0,0,0,.8.8h4.2a.86.86,0,0,0,.8-.8V19.7Z" transform="translate(-3.5 0)"/><path class="cls-1" d="M13,20.6V9.8a.86.86,0,0,0-.8-.8H4.3a.86.86,0,0,0-.8.8V20.6Z" transform="translate(-3.5 0)"/><path class="cls-1" d="M3.5,21.4V38.6a.86.86,0,0,0,.8.8h7.9a.86.86,0,0,0,.8-.8V21.4Z" transform="translate(-3.5 0)"/><path class="cls-1" d="M35.6,8.4H25.9c-.1,7.5-.4,18.9-1.1,30.2a.74.74,0,0,0,.8.8H35.8a.79.79,0,0,0,.8-.8c-.6-11.3-.9-22.8-1-30.2" transform="translate(-3.5 0)"/><path class="cls-1" d="M35.6,7.5c0-3.2-.1-5.6-.1-6.7a.86.86,0,0,0-.8-.8h-8a.77.77,0,0,0-.7.8c0,1.2,0,3.5-.1,6.7Z" transform="translate(-3.5 0)"/><path class="cls-1" d="M19.1,15.5a1.9,1.9,0,1,0,0,3.8A1.84,1.84,0,0,0,21,17.4a1.9,1.9,0,0,0-1.9-1.9" transform="translate(-3.5 0)"/><path class="cls-1" d="M22,23.5H16.2a.76.76,0,0,0-.2.5V38.8a.65.65,0,0,0,.6.6h5.2a.65.65,0,0,0,.6-.6V24a1,1,0,0,0-.4-.5" transform="translate(-3.5 0)"/><path class="cls-1" d="M21.8,17.4a2.6,2.6,0,0,1-5.2,0,.32.32,0,0,0-.3.3v5H22v-5c0-.1-.1-.2-.2-.3" transform="translate(-3.5 0)"/><path class="cls-1" d="M74.5,16.8h7.8a.86.86,0,0,1,.8.8v21a.86.86,0,0,1-.8.8H74.4a.86.86,0,0,1-.8-.8v-21a1,1,0,0,1,.9-.8" transform="translate(-3.5 0)"/><path class="cls-1" d="M76.1,9.9V8.4a.55.55,0,0,0-.3-.5l-.4-.2V6.9l4.8.3a.47.47,0,0,1,.5.5V9.9Z" transform="translate(-3.5 0)"/><path class="cls-1" d="M74.9,14.1V11.6l.3-.7a.22.22,0,0,1,.2-.2h6.1a.22.22,0,0,1,.2.2l.3.7v2.5Z" transform="translate(-3.5 0)"/><path class="cls-1" d="M74.8,15H82a.32.32,0,0,1,.3.3V16H74.5v-.7a.27.27,0,0,1,.3-.3" transform="translate(-3.5 0)"/><path d="M108.7,7.5h6.6V26.6a17.91,17.91,0,0,1-.7,5.8,7.59,7.59,0,0,1-3.5,4.2,12,12,0,0,1-6.6,1.6c-3.2,0-5.7-.8-7.5-2.5s-2.6-4.1-2.6-7.4l6.2-.7a7.8,7.8,0,0,0,.8,3.7,4.38,4.38,0,0,0,6.4.4q.9-1.2.9-4.8Z" transform="translate(-3.5 0)"/><rect x="127.8" y="7.5" width="6.6" height="30.2"/><polygon points="149.9 37.8 149.9 7.5 156.3 7.5 169.7 27.7 169.7 7.5 175.8 7.5 175.8 37.8 169.2 37.8 156 18 156 37.8 149.9 37.8"/><path d="M210.7,26.6V21.5h14.2v12a20.66,20.66,0,0,1-6,3.3,24.5,24.5,0,0,1-8,1.4,19.16,19.16,0,0,1-8.9-2,12.58,12.58,0,0,1-5.7-5.7,17.26,17.26,0,0,1-1.9-8.1,16.89,16.89,0,0,1,2.1-8.4,13.83,13.83,0,0,1,6.3-5.6,18.08,18.08,0,0,1,7.8-1.5c4.1,0,7.2.8,9.5,2.4a10.52,10.52,0,0,1,4.4,6.5l-6.6,1.1a6.18,6.18,0,0,0-2.6-3.5,8.21,8.21,0,0,0-4.8-1.3,9.3,9.3,0,0,0-6.9,2.5c-1.7,1.7-2.6,4.2-2.6,7.5,0,3.6.9,6.3,2.6,8.1a9,9,0,0,0,6.8,2.7,12.49,12.49,0,0,0,4.2-.8,15.12,15.12,0,0,0,3.6-1.8V26.5h-7.5Z" transform="translate(-3.5 0)"/><polygon points="236.5 37.8 236.5 7.5 246.4 7.5 252.4 28.1 258.2 7.5 268.1 7.5 268.1 37.8 262 37.8 262 14 255.5 37.8 249.1 37.8 242.7 14 242.7 37.8 236.5 37.8"/><polygon points="283.8 37.8 283.8 7.5 308.1 7.5 308.1 12.6 290.4 12.6 290.4 19.3 306.8 19.3 306.8 24.4 290.4 24.4 290.4 32.7 308.7 32.7 308.7 37.8 283.8 37.8"/><rect x="323.2" y="7.5" width="6.6" height="30.2"/><path class="cls-2" d="M4.3,51.1l1-.1c0,.6.1,1,.4,1.2a1.22,1.22,0,0,0,.9.3,1.45,1.45,0,0,0,.7-.2,1,1,0,0,0,.4-.5,2.51,2.51,0,0,0,.1-1V45.5H8.9v5.3a3.06,3.06,0,0,1-.3,1.5,1.56,1.56,0,0,1-.8.8,2.77,2.77,0,0,1-1.3.3,2.35,2.35,0,0,1-1.7-.6,2.86,2.86,0,0,1-.5-1.7" transform="translate(-3.5 0)"/><rect class="cls-2" x="14.5" y="45.5" width="1.1" height="7.8"/><polygon class="cls-2" points="24.6 53.3 24.6 45.5 25.7 45.5 30.1 51.6 30.1 45.5 31.2 45.5 31.2 53.3 30 53.3 25.6 47.2 25.6 53.3 24.6 53.3"/><path class="cls-2" d="M47.5,50.2v-.9h3.6v2.9a5.56,5.56,0,0,1-1.7.9,5.66,5.66,0,0,1-1.8.3,5.09,5.09,0,0,1-2.2-.5,2.94,2.94,0,0,1-1.5-1.4,4.66,4.66,0,0,1,0-4.2,3.12,3.12,0,0,1,1.5-1.5,5.09,5.09,0,0,1,2.2-.5,3.81,3.81,0,0,1,1.6.3,2.55,2.55,0,0,1,1.2.8,2.26,2.26,0,0,1,.6,1.3L50,48a1.93,1.93,0,0,0-.5-.9,2.18,2.18,0,0,0-.8-.5,3.73,3.73,0,0,0-1.2-.2,5.07,5.07,0,0,0-1.3.2,1.46,1.46,0,0,0-.9.6,2.18,2.18,0,0,0-.5.8,4.15,4.15,0,0,0-.3,1.6,2.86,2.86,0,0,0,.4,1.7,2.13,2.13,0,0,0,1.1,1,4.15,4.15,0,0,0,1.6.3,3.53,3.53,0,0,0,1.4-.3,8.92,8.92,0,0,0,1-.5V50.4H47.5Z" transform="translate(-3.5 0)"/><path class="cls-2" d="M59.7,53.3V45.5h1.7l2,5.5c.2.5.3.9.4,1.1.1-.3.2-.7.4-1.2l2-5.4h1.5v7.8H66.6V46.8l-2.4,6.5h-1l-2.4-6.6v6.6Z" transform="translate(-3.5 0)"/><polygon class="cls-2" points="73 53.3 73 45.5 79.1 45.5 79.1 46.4 74.1 46.4 74.1 48.8 78.7 48.8 78.7 49.7 74.1 49.7 74.1 52.3 79.3 52.3 79.3 53.3 73 53.3"/><rect class="cls-2" x="88" y="45.5" width="1.1" height="7.8"/><rect class="cls-2" x="108.6" y="45.5" width="1.1" height="7.8"/><polygon class="cls-2" points="118.6 53.3 118.6 45.5 119.8 45.5 124.2 51.6 124.2 45.5 125.2 45.5 125.2 53.3 124.1 53.3 119.7 47.2 119.7 53.3 118.6 53.3"/><path class="cls-2" d="M137.6,53.3V45.5h2.9a5.76,5.76,0,0,1,1.5.1,2.28,2.28,0,0,1,1.2.6,3.25,3.25,0,0,1,1,1.3,5.23,5.23,0,0,1,.3,1.8,7.77,7.77,0,0,1-.2,1.6,2,2,0,0,1-.6,1.1,2.7,2.7,0,0,1-.8.7,3,3,0,0,1-1,.4,5.28,5.28,0,0,1-1.3.1h-3Zm1.1-1h1.8a4.51,4.51,0,0,0,1.3-.1,2,2,0,0,0,.8-.4,1.7,1.7,0,0,0,.6-1,6.05,6.05,0,0,0,.2-1.5,3.58,3.58,0,0,0-.4-1.9,2.44,2.44,0,0,0-1.1-.9,4.64,4.64,0,0,0-1.4-.2h-1.8v6Z" transform="translate(-3.5 0)"/><path class="cls-2" d="M158.6,45.5h1.1V50a5,5,0,0,1-.3,1.9,2.13,2.13,0,0,1-1,1.1,3.74,3.74,0,0,1-2,.4,3.58,3.58,0,0,1-1.9-.4,2,2,0,0,1-1.1-1.1,5,5,0,0,1-.3-1.9V45.5h1.1V50a4.87,4.87,0,0,0,.2,1.5,1.21,1.21,0,0,0,.7.7,2.13,2.13,0,0,0,1.2.3A2.46,2.46,0,0,0,158,52a3,3,0,0,0,.5-2V45.5Z" transform="translate(-3.5 0)"/><path class="cls-2" d="M168.2,50.8l1-.1c.1.4.2.7.3,1a5.55,5.55,0,0,0,.8.6,2.74,2.74,0,0,0,1.3.2,3.59,3.59,0,0,0,1.1-.2,1.28,1.28,0,0,0,.7-.5.84.84,0,0,0,.2-.7,1.07,1.07,0,0,0-.2-.6,2.77,2.77,0,0,0-.8-.5,12.68,12.68,0,0,0-1.5-.4,6,6,0,0,1-1.6-.5,2.18,2.18,0,0,1-.9-.7,1.69,1.69,0,0,1-.3-1,1.5,1.5,0,0,1,.4-1.1,2.42,2.42,0,0,1,1.1-.8,4,4,0,0,1,1.5-.3,3.81,3.81,0,0,1,1.6.3,3.13,3.13,0,0,1,1.1.8,1.92,1.92,0,0,1,.4,1.2l-1.1.1c-.1-.5-.2-.9-.6-1.1a2.7,2.7,0,0,0-1.5-.4,2.81,2.81,0,0,0-1.5.3,1,1,0,0,0-.5.8.91.91,0,0,0,.3.7,4.35,4.35,0,0,0,1.7.6c.9.2,1.5.4,1.9.5a3.13,3.13,0,0,1,1.1.8,2,2,0,0,1,.3,1.1,1.92,1.92,0,0,1-.4,1.2,3.33,3.33,0,0,1-1.1.9,4.15,4.15,0,0,1-1.6.3,5,5,0,0,1-1.9-.3,2.73,2.73,0,0,1-1.2-.9c.1-.3-.1-.8-.1-1.3" transform="translate(-3.5 0)"/><polygon class="cls-2" points="182.1 53.3 182.1 46.4 179.3 46.4 179.3 45.5 186 45.5 186 46.4 183.2 46.4 183.2 53.3 182.1 53.3"/><path class="cls-2" d="M197.6,53.3V45.5h3.7a7.18,7.18,0,0,1,1.7.2,1.6,1.6,0,0,1,.9.7,2.38,2.38,0,0,1,.3,1.2,1.82,1.82,0,0,1-.6,1.4,3,3,0,0,1-1.8.7,4.35,4.35,0,0,1,.7.4,9,9,0,0,1,.9,1l1.5,2.1h-1.4l-1.1-1.6c-.3-.5-.6-.8-.8-1.1a2.65,2.65,0,0,0-.6-.5c-.2-.1-.3-.2-.5-.2h-1.9v3.4h-1Zm1.1-4.4h2.4a4.12,4.12,0,0,0,1.2-.1,1.79,1.79,0,0,0,.7-.5,1.45,1.45,0,0,0,.2-.7,1,1,0,0,0-.4-.9,2.33,2.33,0,0,0-1.4-.4h-2.7Z" transform="translate(-3.5 0)"/><path class="cls-2" d="M215.3,53.3V50l-3.2-4.5h1.3l1.7,2.3c.3.4.6.9.9,1.3.3-.4.6-.9.9-1.4l1.6-2.3h1.3l-3.3,4.5v3.3h-1.2Z" transform="translate(-3.5 0)"/><path class="cls-2" d="M243.8,50.5l1.1.3a3.28,3.28,0,0,1-1.3,1.9,3.84,3.84,0,0,1-2.2.7,4.77,4.77,0,0,1-2.2-.5,2.78,2.78,0,0,1-1.3-1.5,5.13,5.13,0,0,1,.1-4.2,3.16,3.16,0,0,1,1.4-1.4,4.55,4.55,0,0,1,2-.5,3.7,3.7,0,0,1,2.1.6,2.69,2.69,0,0,1,1.2,1.7l-1.1.2a2.28,2.28,0,0,0-.8-1.2,2.12,2.12,0,0,0-1.4-.4,2.73,2.73,0,0,0-1.6.4,3.13,3.13,0,0,0-.9,1.1,4,4,0,0,0-.3,1.5,4.31,4.31,0,0,0,.3,1.7,1.82,1.82,0,0,0,1,1.1,3.26,3.26,0,0,0,1.4.4,3,3,0,0,0,1.6-.5,2.15,2.15,0,0,0,.9-1.4" transform="translate(-3.5 0)"/><path class="cls-2" d="M252.9,49.5a4.08,4.08,0,0,1,1.1-3,4,4,0,0,1,2.9-1.1,4.65,4.65,0,0,1,2.1.5,3.16,3.16,0,0,1,1.4,1.4,4.66,4.66,0,0,1,0,4.2,2.94,2.94,0,0,1-1.5,1.4,4.55,4.55,0,0,1-2,.5,4.65,4.65,0,0,1-2.1-.5,3.76,3.76,0,0,1-1.4-1.4,4.92,4.92,0,0,1-.5-2m1.2,0a3.11,3.11,0,0,0,.8,2.2,2.79,2.79,0,0,0,2,.8,2.77,2.77,0,0,0,2.9-3.1,4.67,4.67,0,0,0-.3-1.7,2.66,2.66,0,0,0-1-1.1,2.41,2.41,0,0,0-1.5-.4,2.72,2.72,0,0,0-2,.7,3.42,3.42,0,0,0-.9,2.6" transform="translate(-3.5 0)"/><rect class="cls-2" x="266.1" y="52.2" width="1.2" height="1.1"/><path class="cls-2" d="M279.8,53.3V52.2H281v1.1a3,3,0,0,1-.2,1,4.35,4.35,0,0,1-.7.6l-.3-.4a1,1,0,0,0,.5-.4,1.45,1.45,0,0,0,.2-.7h-.7Z" transform="translate(-3.5 0)"/><polygon class="cls-2" points="296.7 53.3 296.7 45.5 297.8 45.5 297.8 52.3 302 52.3 302 53.3 296.7 53.3"/><polygon class="cls-2" points="311.6 53.3 311.6 46.4 308.8 46.4 308.8 45.5 315.5 45.5 315.5 46.4 312.7 46.4 312.7 53.3 311.6 53.3"/><path class="cls-2" d="M327.1,53.3V45.5H330a6.18,6.18,0,0,1,1.5.1,2.28,2.28,0,0,1,1.2.6,3.25,3.25,0,0,1,1,1.3,5.23,5.23,0,0,1,.3,1.8,7.77,7.77,0,0,1-.2,1.6,2,2,0,0,1-.6,1.1,2.7,2.7,0,0,1-.8.7,3,3,0,0,1-1,.4,5.28,5.28,0,0,1-1.3.1h-3Zm1.1-1H330a4.51,4.51,0,0,0,1.3-.1,2,2,0,0,0,.8-.4,1.7,1.7,0,0,0,.6-1,6.05,6.05,0,0,0,.2-1.5,3.58,3.58,0,0,0-.4-1.9,2.84,2.84,0,0,0-1-.9,4.64,4.64,0,0,0-1.4-.2h-1.8v6Z" transform="translate(-3.5 0)"/></svg>